<svg xmlns="http://www.w3.org/2000/svg" xmlns:xlink="http://www.w3.org/1999/xlink" width="32" height="32" version="1.1" viewBox="0 0 32 32"><g transform="translate(16,16)"><g><g><line x1="0" x2="0" y1="0" y2="5" fill="none" stroke="#ED1C24" stroke-width="2" transform="translate(0,8)"/></g><g transform="rotate(45)"><line x1="0" x2="0" y1="0" y2="5" fill="none" stroke="#ED1C24" stroke-width="2" transform="translate(0,8)"/></g><g transform="rotate(90)"><line x1="0" x2="0" y1="0" y2="5" fill="none" stroke="#ED1C24" stroke-width="2" transform="translate(0,8)"/></g><g transform="rotate(135)"><line x1="0" x2="0" y1="0" y2="5" fill="none" stroke="#ED1C24" stroke-width="2" transform="translate(0,8)"/></g><g transform="rotate(180)"><line x1="0" x2="0" y1="0" y2="5" fill="none" stroke="#ED1C24" stroke-width="2" transform="translate(0,8)"/></g><g transform="rotate(225)"><line x1="0" x2="0" y1="0" y2="5" fill="none" stroke="#ED1C24" stroke-width="2" transform="translate(0,8)"/></g><g transform="rotate(270)"><line x1="0" x2="0" y1="0" y2="5" fill="none" stroke="#ED1C24" stroke-width="2" transform="translate(0,8)"/></g><g transform="rotate(315)"><line x1="0" x2="0" y1="0" y2="5" fill="none" stroke="#ED1C24" stroke-width="2" transform="translate(0,8)"/></g><animateTransform attributeName="transform" begin="0s" dur="5s" from="0" repeatCount="indefinite" to="360" type="rotate"/></g><circle cx="0" cy="0" r="5" fill="none" stroke="#ED1C24" stroke-width="2"/></g></svg>